<svg width="646" height="188" viewBox="0 0 646 188" fill="none" xmlns="http://www.w3.org/2000/svg">
<path d="M611.38 120.239C597.091 120.239 585.586 107.714 585.586 92.4129C585.586 77.1116 597.221 64.5868 611.38 64.5868C625.538 64.5868 637.181 77.1116 637.181 92.4129C637.181 107.714 625.677 120.239 611.38 120.239ZM637.303 57.2408V68.373C630.977 60.6614 621.744 55.8481 611.38 55.8481C592.409 55.8481 577.102 72.1678 577.102 92.2824C577.102 112.397 592.531 128.708 611.38 128.708C621.753 128.708 630.986 123.903 637.303 116.183V127.315H645.779V57.2408H637.303Z" fill="#FAFFFA"/>
<path d="M544.225 70.4011V57.2409H535.749V127.324H544.225V93.2921C544.225 80.6455 552.945 69.5133 565.093 66.7281C568.13 66.0927 571.419 65.7097 575.092 65.7097V57.2322C570.915 57.2322 566.868 57.6064 563.335 58.4942C555.625 60.3917 549.046 64.5608 544.242 70.3924H544.234L544.225 70.4011Z" fill="#FAFFFA"/>
<path d="M490.733 120.239C475.304 120.239 462.912 107.715 462.912 92.4132C462.912 77.1119 475.435 64.5871 490.733 64.5871C506.031 64.5871 518.554 77.1119 518.554 92.4132C518.554 107.715 506.162 120.239 490.733 120.239ZM490.733 55.979C470.631 55.979 454.306 72.2987 454.306 92.4045C454.306 112.51 470.622 128.839 490.733 128.839C510.844 128.839 527.151 112.519 527.151 92.4045C527.151 72.29 510.835 55.979 490.733 55.979Z" fill="#FAFFFA"/>
<path d="M426.607 65.7278H448.736V57.2503H426.607V41.6965H418.131V57.2503H408.515V65.7278H418.131V127.333H448.736V118.856H426.607V65.7365V65.7278Z" fill="#FAFFFA"/>
<path d="M368.442 70.4011V57.2409H359.966V127.324H368.442V93.2921C368.442 80.6455 377.161 69.5133 389.309 66.7281C392.346 66.0927 395.636 65.7097 399.308 65.7097V57.2322C395.131 57.2322 391.085 57.6064 387.552 58.4942C379.833 60.3917 373.263 64.5608 368.45 70.3924L368.442 70.4011Z" fill="#FAFFFA"/>
<path d="M315.698 64.5784C329.108 64.5784 340.36 74.8316 342.379 88.1049H289.139C291.036 74.6923 302.297 64.5784 315.698 64.5784ZM315.698 120.118C302.288 120.118 291.036 109.864 289.017 96.5911H351.116V92.4133C351.116 72.4293 335.173 56.1096 315.707 56.1096C296.24 56.1096 280.298 72.4293 280.298 92.4133C280.298 112.397 296.24 128.717 315.707 128.717C329.743 128.717 342.387 120.239 348.079 107.088H338.593C333.668 115.174 325.07 120.248 315.707 120.118H315.698Z" fill="#FAFFFA"/>
<path d="M239.815 120.117C225.013 120.117 212.882 107.593 212.882 92.2912C212.882 76.9899 225.022 64.4651 239.815 64.4651C249.431 64.4651 257.898 69.6439 262.702 77.4947H272.187C266.627 64.848 254.226 55.9875 239.815 55.9875C220.331 55.9875 204.406 72.3072 204.406 92.2912C204.406 112.275 220.349 128.595 239.815 128.595C253.852 128.595 266.496 120.126 272.187 107.088H262.702C257.898 115.182 249.301 120.117 239.815 120.117Z" fill="#FAFFFA"/>
<path fill-rule="evenodd" clip-rule="evenodd" d="M3 0H0.25V2.75V48.1776H3.00009L1.65204 50.5747L39.575 71.901L0.634194 137.614L2.99946 139.016L4.3483 141.413L80.9998 98.2936V184.432H86.4998V98.2992L163.146 141.413L164.494 139.016L166.86 137.614L127.923 71.9077L165.847 50.5746L164.499 48.1776H167.244V2.75V0H164.494H3ZM156.894 131.586L123.128 74.6049L89.3618 93.5987L156.894 131.586ZM42.3796 67.1681L5.75 46.5692V5.5H78.9234L42.3796 67.1681ZM10.5992 131.586L44.3702 74.5976L78.1431 93.5901L10.5992 131.586ZM47.1748 69.8647L80.9998 88.8865V12.7846L47.1748 69.8647ZM120.323 69.8721L86.4998 88.8982V12.7947L120.323 69.8721ZM161.744 46.5725L125.118 67.1749L88.5702 5.5H161.744V46.5725Z" fill="#FAFFFA"/>
<path d="M164.494 48.1777V139.016L83.7607 184.433L3 139.016V48.1777" stroke="#FAFFFA" stroke-width="5.5" stroke-miterlimit="10"/>
<path d="M3 63.8849V48.1776L83.7496 2.75" stroke="#FAFFFA" stroke-width="5.5" stroke-miterlimit="10"/>
<path d="M164.494 63.8851V48.1778L83.744 2.75024" stroke="#FAFFFA" stroke-width="5.5" stroke-miterlimit="10"/>
</svg>
